<?xml version="1.0" encoding="utf-8"?>
<!-- Generator: Adobe Illustrator 24.0.2, SVG Export Plug-In . SVG Version: 6.00 Build 0)  -->
<svg version="1.1" id="nav-mobile" xmlns="http://www.w3.org/2000/svg" xmlns:xlink="http://www.w3.org/1999/xlink" x="0px" y="0px"
	 viewBox="0 0 132.8 109.1" style="enable-background:new 0 0 132.8 109.1;" xml:space="preserve">
<style type="text/css">
	.st0{fill:#333333;}
</style>
<path id="bottom" class="st0" d="M116,20.2l-84,83.9c-2.8,2.8-7.3,2.8-10,0L16.9,99c-2.8-2.8-2.8-7.3,0-10l83.9-84
	c2.8-2.8,7.3-2.8,10,0l5.1,5.1C118.7,12.9,118.7,17.4,116,20.2z"/>
<path id="middle" class="st0" d="M100.8,104.1L16.9,20.2c-2.8-2.8-2.8-7.3,0-10L22,5c2.8-2.8,7.3-2.8,10,0l84,84
	c2.8,2.8,2.8,7.3,0,10l-5.1,5.1C108.1,106.9,103.6,106.9,100.8,104.1z"/>
</svg>
