<?xml version="1.0" encoding="utf-8"?>
<!-- Generator: Adobe Illustrator 23.1.1, SVG Export Plug-In . SVG Version: 6.00 Build 0)  -->
<svg version="1.1" id="nav-mobile" xmlns="http://www.w3.org/2000/svg" xmlns:xlink="http://www.w3.org/1999/xlink" x="0px" y="0px"
	 viewBox="0 0 132.8 109.1" style="enable-background:new 0 0 132.8 109.1;" xml:space="preserve">
<style type="text/css">
	.st0{fill:#333333;}
</style>
<path id="bottom" class="st0" d="M125.8,109.1H7.1c-3.9,0-7.1-3.2-7.1-7.1l0-7.2c0-3.9,3.2-7.1,7.1-7.1h118.7c3.9,0,7.1,3.2,7.1,7.1
	v7.2C132.8,105.9,129.7,109.1,125.8,109.1z"/>
<path id="middle" class="st0" d="M125.8,65.3l-118.7,0c-3.9,0-7.1-3.2-7.1-7.1l0-7.2c0-3.9,3.2-7.1,7.1-7.1h118.7
	c3.9,0,7.1,3.2,7.1,7.1v7.2C132.8,62.1,129.7,65.3,125.8,65.3z"/>
<path id="top" class="st0" d="M125.8,21.4H7.1c-3.9,0-7.1-3.2-7.1-7.1l0-7.2C0,3.2,3.2,0,7.1,0l118.7,0c3.9,0,7.1,3.2,7.1,7.1v7.2
	C132.8,18.2,129.7,21.4,125.8,21.4z"/>
</svg>
